<svg xmlns="http://www.w3.org/2000/svg" width="512" height="501.342" viewBox="0 0 512 501.342"><g transform="translate(0 -5.329)"><path d="M255.968,5.329C114.624,5.329,0,120.4,0,262.353A257,257,0,0,0,175.1,506.225c12.8,2.368,17.472-5.568,17.472-12.384,0-6.112-.224-22.272-.352-43.712-71.2,15.52-86.24-34.464-86.24-34.464-11.616-29.7-28.416-37.6-28.416-37.6C54.3,362.129,79.3,362.449,79.3,362.449c25.7,1.824,39.2,26.5,39.2,26.5,22.848,39.264,59.936,27.936,74.528,21.344,2.3-16.608,8.928-27.936,16.256-34.368-56.832-6.5-116.608-28.544-116.608-127.008,0-28.064,9.984-51.008,26.368-68.992-2.656-6.5-11.424-32.64,2.5-68,0,0,21.5-6.912,70.4,26.336a241.637,241.637,0,0,1,128.192.032c48.864-33.248,70.336-26.336,70.336-26.336,13.952,35.392,5.184,61.5,2.56,68,16.416,17.984,26.3,40.928,26.3,68.992,0,98.72-59.84,120.448-116.864,126.816,9.184,7.936,17.376,23.616,17.376,47.584,0,34.368-.32,62.08-.32,70.5,0,6.88,4.608,14.88,17.6,12.352A257.03,257.03,0,0,0,512,262.353C512,120.4,397.376,5.329,255.968,5.329Z" fill="#483113"/></g></svg>